Coordinates
version=1
nRows=7
nColumns=40
inDegrees=yes

Units are S.I. units (second, meters, Newtons, ...)
Angles are in degrees.

endheader
time	pelvis_tilt	pelvis_list	pelvis_rotation	pelvis_tx	pelvis_ty	pelvis_tz	hip_flexion_r	hip_adduction_r	hip_rotation_r	knee_angle_r	knee_angle_r_beta	ankle_angle_r	subtalar_angle_r	mtp_angle_r	hip_flexion_l	hip_adduction_l	hip_rotation_l	knee_angle_l	knee_angle_l_beta	ankle_angle_l	subtalar_angle_l	mtp_angle_l	lumbar_extension	lumbar_bending	lumbar_rotation	arm_flex_r	arm_add_r	arm_rot_r	elbow_flex_r	pro_sup_r	wrist_flex_r	wrist_dev_r	arm_flex_l	arm_add_l	arm_rot_l	elbow_flex_l	pro_sup_l	wrist_flex_l	wrist_dev_l
      0.00000000	     -1.31699114	     -3.18799669	     32.90377883	     -1.82794274	      0.88618337	     -1.23032473	     25.22911212	      2.12255395	    -20.67857692	    -27.55187520	     -0.48087094	      3.69558194	    -13.62505537	     12.41022709	      1.43129483	     12.71039872	     13.61060747	    -47.37043697	     -0.82677009	     -5.69795148	     17.44482881	     18.02115876	     -1.89423258	      3.53550509	     -9.67959340	     -7.85564814	     -7.63639845	    -19.28999352	     16.69892905	     89.95437384	      0.00000000	      0.00000000	      0.28507543	     14.52597841	     25.54314901	     66.42573283	     89.95437384	      0.00000000	      0.00000000
      0.01000000	     -1.06560842	     -3.08241479	     32.28902887	     -1.81806666	      0.88700943	     -1.23267210	     24.37024904	      2.59600036	    -20.22774162	    -27.79192078	     -0.48506052	      4.34773076	    -13.46342711	     12.14750804	      2.30812968	     12.93139194	     12.99654811	    -49.61274495	     -0.86590575	     -8.36703255	     18.11230389	     18.26760825	     -2.15573699	      3.56852509	     -9.38980084	     -7.52316952	     -7.62222578	    -19.25600385	     17.02873444	     89.95437384	      0.00000000	      0.00000000	     -0.30668241	     14.35289570	     25.37480460	     65.90382049	     89.95437384	      0.00000000	      0.00000000
      0.02000000	     -0.97323573	     -3.00785917	     31.71950001	     -1.80876957	      0.88759887	     -1.23502083	     23.64850843	      2.98485506	    -19.70840410	    -27.90642404	     -0.48705898	      4.94884815	    -13.20884012	     11.84950872	      3.49038269	     12.94865678	     12.09740128	    -51.97570650	     -0.90714721	    -10.30954679	     18.40241597	     18.41989658	     -2.29081398	      3.55276675	     -9.08972523	     -7.26585107	     -7.62936899	    -19.19213371	     17.62670798	     89.95437384	      0.00000000	      0.00000000	     -0.71498727	     14.04345358	     25.35170749	     65.21706125	     89.95437384	      0.00000000	      0.00000000
      0.03000000	     -0.90172810	     -2.60346161	     30.87425105	     -1.79950985	      0.88846205	     -1.23737156	     22.78109067	      2.94954343	    -19.51913150	    -28.08494454	     -0.49017475	      5.21531463	    -12.82486269	     11.54295495	      4.32156643	     12.52813341	     11.51542044	    -54.10066559	     -0.94423474	    -10.96725273	     18.26437988	     18.14994317	     -2.64809463	      3.22222791	     -8.52796847	     -6.92429802	     -7.64769952	    -19.03746001	     18.16309520	     89.95437384	      0.00000000	      0.00000000	     -1.15235030	     13.77599262	     25.22499929	     64.58401537	     89.95437384	      0.00000000	      0.00000000
      0.04000000	     -0.97984894	     -2.98886516	     30.74627665	     -1.79083172	      0.88830423	     -1.23964592	     22.40458121	      3.60955086	    -19.09303643	    -28.05606104	     -0.48967064	      6.37032330	    -12.51465737	     11.11845703	      6.36880106	     12.76347249	     10.01403176	    -56.64708081	     -0.98867807	    -11.78597066	     18.39644757	     18.28037162	     -2.33047191	      3.50846388	     -8.59301139	     -6.87303126	     -7.66432309	    -18.64752477	     19.12274376	     89.95437384	      0.00000000	      0.00000000	     -1.45311845	     13.59071794	     24.86226127	     63.56264455	     89.95437384	      0.00000000	      0.00000000
      0.05000000	     -1.02395015	     -2.86928559	     30.21154406	     -1.78238578	      0.88876541	     -1.24188780	     21.83200139	      3.74089885	    -18.77391155	    -28.21698073	     -0.49247922	      6.81282781	    -12.10736828	     10.76302513	      7.81151276	     12.41459096	      9.06277837	    -58.74431509	     -1.02528172	    -11.62745354	     18.17023409	     18.02482593	     -2.44180154	      3.37170397	     -8.31455344	     -6.52440003	     -7.71116719	    -18.44725219	     19.92386942	     89.95437384	      0.00000000	      0.00000000	     -1.67094689	     13.32161740	     24.68674694	     62.52229252	     89.95437384	      0.00000000	      0.00000000
      0.06000000	     -1.01671148	     -2.51429506	     29.53396602	     -1.77375882	      0.88950844	     -1.24400532	     21.04727103	      3.68717423	    -18.48357451	    -28.32325868	     -0.49433412	      7.12089260	    -11.68176145	     10.42805619	      8.96217171	     11.92175780	      8.48241449	    -60.50285713	     -1.05597406	    -11.55969165	     17.70496042	     17.60597866	     -2.73331883	      3.00927335	     -7.91696598	     -6.12455774	     -7.71715883	    -18.18874010	     20.67926010	     89.95437384	      0.00000000	      0.00000000	     -1.93786637	     13.14793534	     24.46082483	     61.53603547	     89.95437384	      0.00000000	      0.00000000
